PathFileType	4	(X/Y/Z)	Patient4_TMGait_0pt6_02_right_05.trc.trc
DataRate	CameraRate	NumFrames	NumMarkers	Units	OrigDataRate	OrigDataStartFrame	OrigNumFrames
85.889570552147	85.889570552147	4	33	mm	85.889570552147	36	       141
Frame#	Time	Sacral			L.Shoulder			Chest			R.Shoulder			Neck			R.ASIS			L.ASIS			R.Thigh.Superior			R.Thigh.Lateral			R.Thigh.Inferior			R.Patella			L.Thigh.Superior			L.Thigh.Lateral			L.Thigh.Inferior			L.Patella			L.Shank.Superior			L.Shank.Lateral			L.Shank.Inferior			R.Shank.Superior			R.Shank.Lateral			R.Shank.Inferior			R.Heel			R.Midfoot.Superior			R.Midfoot.Lateral			R.Toe			L.Heel			L.Midfoot.Lateral			L.Midfoot.Superior			L.Toe			L.Elbow			L.Wrist			R.Elbow			R.Wrist			
		X1	Y1	Z1	X2	Y2	Z2	X3	Y3	Z3	X4	Y4	Z4	X5	Y5	Z5	X6	Y6	Z6	X7	Y7	Z7	X8	Y8	Z8	X9	Y9	Z9	X10	Y10	Z10	X11	Y11	Z11	X12	Y12	Z12	X13	Y13	Z13	X14	Y14	Z14	X15	Y15	Z15	X16	Y16	Z16	X17	Y17	Z17	X18	Y18	Z18	X19	Y19	Z19	X20	Y20	Z20	X21	Y21	Z21	X22	Y22	Z22	X23	Y23	Z23	X24	Y24	Z24	X25	Y25	Z25	X26	Y26	Z26	X27	Y27	Z27	X28	Y28	Z28	X29	Y29	Z29	X30	Y30	Z30	X31	Y31	Z31	X32	Y32	Z32	X33	Y33	Z33	

36	5.897500000000	706.045178907104	1001.873065305319	513.028356463284	875.638241887996	1436.596734697959	342.861536881312	977.056005814115	1366.767962346534	503.775966863897	887.086530811761	1433.629317565601	676.303176598654	857.091696787706	1493.144466836804	497.590152523569	930.352855775387	942.775886194008	635.254774513496	920.868281698114	958.665732140515	361.045178260899	988.634794015001	749.596281674141	606.709052433466	914.539802962167	633.889132109047	661.964233276493	999.108411199547	589.696293407007	584.355908445196	1006.738042740921	501.738787325124	589.806929677650	953.593095578538	734.700134526914	387.215181452687	861.685477252761	622.644545464845	323.020975431826	944.451210935561	535.559582942436	382.400061955150	933.397198310815	449.954702399800	380.429479929532	863.541601087482	394.669999926231	377.619837662898	722.660728938637	350.535081035324	332.321421938024	708.858366392490	225.105302598046	394.052014408773	987.103614759610	411.499733797967	594.885083756994	922.918424929620	300.090256328363	651.350926149448	977.936625909322	211.115494293159	588.308675934508	859.931478830528	41.862210868775	548.211393063713	1028.760038896617	98.329844513383	590.141478647335	941.214706845441	36.699158443825	625.395571928181	1149.045752690488	47.648566513090	619.381537950933	517.894091422166	155.564275210119	435.691124270231	577.034603118784	111.383499958278	356.781589534223	680.593108664586	125.338674852298	377.223406520104	763.217233397369	31.500161209540	353.295980694756	890.919817842963	1082.284953234448	227.115900384904	1061.842347638102	884.819326954930	219.525023737385	839.360217504023	1084.755942659619	785.838795505196	968.019402961066	857.987811935547	796.160138897504	
37	5.909142857143	706.300122873328	1002.360762772574	516.153370561557	873.772727410152	1437.585161253598	344.873124745377	976.516498389337	1367.829521196781	505.018965895877	887.673928799336	1434.409148296235	678.213588563961	856.557910004549	1493.905167829473	499.777205101944	931.399522065855	943.818969182227	636.607216442006	920.130279840727	959.637775305690	362.514967033142	987.361524196506	748.872519346136	608.770925263908	911.810384163289	634.116166365700	663.788492624303	995.854133633507	589.060392573801	586.096089800900	1002.465147950560	501.190613099134	591.231236229962	958.401950685285	737.904640700269	388.668980402510	870.902760032460	623.537220293174	323.441028192279	956.569946509778	538.325990685266	382.316059520529	946.766989294699	451.544425238813	379.609827948495	875.228373055813	396.233218342029	377.331372705463	732.611147628450	356.764963286802	332.813976676158	715.261549922037	231.782702880388	394.356720832856	982.303635505369	411.125832733316	596.188243938879	917.464613857677	300.003352410747	652.412766010344	971.902424218801	210.876504064047	589.068327185975	853.044931011549	41.824477920022	548.457132237075	1021.840814429373	98.269774586491	590.447907699401	934.301714818322	36.613660802301	625.664882883172	1142.116119319448	47.674988669192	619.676560024646	522.252254674378	171.097575555036	436.949863817465	578.684689625759	123.848220552057	357.630010642902	683.247440220772	131.974994184832	377.554572856123	759.936358134781	31.409351037776	352.955511775291	888.059404322471	1083.046350107761	230.174972996658	1045.832204504608	874.620498904401	219.813923860620	845.767565588837	1085.568390564666	790.360945166338	984.824579782218	865.241399432198	799.873163473342	
38	5.920785714286	706.312183961828	1002.817714256087	519.143789792521	871.713698108133	1438.412992301901	346.774454770823	975.927711580376	1368.740471295317	506.068281153918	888.326397484407	1435.000328040173	680.037780175749	855.991432470311	1494.521492238116	501.887439750566	932.264464554092	944.723843882048	637.773710946408	919.221349698976	960.379006995399	363.814213386153	985.801937899073	748.039563906344	610.846726139680	908.798699841602	634.264548186947	665.591005497201	992.312744325076	588.369023661379	587.808753433674	997.920021059474	500.627320294533	592.653027198609	963.075668711947	741.246450065507	389.913100430285	879.941108381406	624.769410523508	323.692026456102	968.416647252916	541.565365294994	382.023659976487	960.043463044042	453.720284207260	378.711065502279	887.100335025147	398.214466572861	376.920566955049	743.002552845206	362.967359099043	333.226188195650	722.484102885378	238.496031544881	394.688480748149	977.280029439294	410.727759816062	597.465613081107	911.799848730567	299.865877202496	653.408738118897	965.740355880584	210.622159352385	589.810185412991	846.081581658698	41.805577817285	548.675362232098	1014.863890429042	98.134017421944	590.687451392942	927.302813391058	36.521730094110	625.911731030980	1135.120003698310	47.584593279752	619.942235113166	527.986620135665	185.770933162261	438.387683791105	581.817082368986	136.014489328799	358.563490160228	687.095084803363	138.908672322068	377.918286205439	758.317008634051	31.996083508841	352.394719948398	884.546833538578	1083.609784055349	232.904580068954	1029.075410837765	865.611330101367	220.165629221361	852.275423335443	1086.333485173885	794.777384173488	1001.522407363823	872.987449240773	803.310363167114	
39	5.932428571429	706.103063365899	1003.268414898570	521.950148700591	869.552470297592	1439.092175103922	348.552983745941	975.324766335404	1369.498042898877	506.937283181408	889.059809512876	1435.439340721798	681.758175916383	855.439553415794	1495.029053013542	503.893415816965	932.905074977122	945.497002074501	638.800515898656	918.179706455282	960.915640691802	364.979476710118	984.018159667049	747.193296026977	612.868551895924	905.631500475025	634.380206556935	667.349878562805	988.598338674590	587.670934763910	589.467663907570	993.210590443963	500.076934148591	594.067082857846	967.524234002306	744.724219926263	390.953245935463	888.628905114233	626.370153126666	323.791286437205	979.811334476277	545.281756814000	381.525153566541	973.051545547056	456.492899225460	377.695476250163	899.005419009009	400.623638201770	376.355592071750	753.672730256310	369.001507244991	333.543164198313	730.517056613947	245.024211179949	394.986242172720	972.125377071336	410.330283006046	598.705647949648	906.006384106176	299.717073829124	654.348181583836	959.501924868589	210.371142630413	590.534180645216	839.061289992292	41.814349751557	548.882983070618	1007.849547137457	97.943853662917	590.864192059674	920.245381146282	36.433579352925	626.142875563637	1128.082009822181	47.399727028032	620.178141033350	535.047446068747	198.989184183624	439.930516729091	586.513935340512	147.349734187897	359.522319334038	692.258495445299	145.841568111588	378.246469288215	758.743165287127	33.347885964522	351.601984208413	880.226715532842	1083.977247520174	235.300610591991	1011.747765539584	857.850613842450	220.586856058251	858.906831251526	1087.065241080152	799.017911319106	1018.024604546934	881.190550290741	806.431424380805	
